<svg width="32" height="32" viewBox="0 0 32 32" fill="none" xmlns="http://www.w3.org/2000/svg">
<path d="M14.389 15.1321V24.3151H12.1869V21.674C11.9058 21.7012 11.6208 21.7148 11.3318 21.7148C6.39599 21.7148 2.39471 17.7137 2.39471 12.7777C2.39471 7.84169 6.39599 3.84009 11.3318 3.84009C11.6205 3.84009 11.9055 3.85369 12.1869 3.88089V5.98281C11.9032 5.94738 11.6177 5.92969 11.3318 5.92985C7.54991 5.92985 4.48383 8.99593 4.48383 12.7778C4.48383 16.5598 7.54991 19.6258 11.3318 19.6258C11.6177 19.626 11.9032 19.6083 12.1869 19.5729V12.7889L14.389 15.1321Z" fill="black"/>
<path d="M16.2864 15.1556V24.3387H18.4885V21.6975C18.7696 21.7247 19.0546 21.7383 19.3435 21.7383C24.2794 21.7383 28.2806 17.7372 28.2806 12.8012C28.2806 7.86522 24.2795 3.86426 19.344 3.86426C19.0554 3.86426 18.7704 3.87786 18.489 3.90506V6.00634C18.7726 5.97091 19.0582 5.95322 19.344 5.95338C23.1259 5.95338 26.192 9.01946 26.192 12.8014C26.192 16.5833 23.1259 19.6494 19.344 19.6494C19.0582 19.6495 18.7726 19.6318 18.489 19.5964V12.8124L16.2864 15.1556Z" fill="white"/>
<path d="M4.69822 25.6869C4.87956 25.7615 5.02356 25.871 5.13022 26.0153C5.23689 26.1597 5.29022 26.3359 5.29022 26.5441H4.56366C4.56464 26.4937 4.5532 26.4438 4.53035 26.3988C4.5075 26.3538 4.47394 26.3152 4.43262 26.2862C4.34526 26.2207 4.2395 26.1879 4.11534 26.1878C3.93604 26.1878 3.80041 26.2392 3.70846 26.3419C3.61652 26.4446 3.57054 26.59 3.57054 26.7779V27.0153C3.57054 27.2034 3.61652 27.3487 3.70846 27.4513C3.80041 27.554 3.93604 27.6053 4.11534 27.6054C4.2395 27.6054 4.34526 27.5739 4.43262 27.5109C4.51998 27.4478 4.56366 27.3668 4.56366 27.2678H4.02574V26.7483H5.29118V28.1734H4.89822L4.82238 27.9211C4.60628 28.1191 4.32361 28.218 3.97438 28.2179C3.58132 28.2179 3.2859 28.1072 3.08814 27.8857C2.89038 27.6643 2.7915 27.3344 2.7915 26.896C2.7915 26.463 2.9035 26.1346 3.1275 25.9107C3.3515 25.6868 3.67044 25.5748 4.0843 25.5747C4.31193 25.5753 4.51657 25.6127 4.69822 25.6869Z" fill="black"/>
<path d="M5.76352 25.6204H7.8152V26.2327H6.5256V26.5847H7.6296V27.1711H6.5256V27.5607H7.84V28.173H5.76352V25.6204Z" fill="black"/>
<path d="M9.8115 28.1735L8.81502 26.934V28.1735H8.11502V25.6204H8.78046L9.77694 26.8784V25.6204H10.4768V28.1736L9.8115 28.1735Z" fill="black"/>
<path d="M14.311 28.1735V27.2532C14.311 27.1395 14.315 27.0225 14.323 26.9024C14.331 26.7823 14.3397 26.6815 14.349 26.6C14.3581 26.5184 14.3639 26.4665 14.3662 26.4442H14.352L13.9141 28.1736H13.3181L12.8766 26.4482H12.8629C12.8651 26.4705 12.8715 26.5219 12.8819 26.6023C12.8924 26.6827 12.9021 26.7829 12.9112 26.9028C12.9204 27.0229 12.925 27.1398 12.925 27.2535V28.1738H12.2251V25.6204H13.3008L13.6594 27.0936H13.6731L14.0283 25.6204H15.0662V28.1736L14.311 28.1735Z" fill="black"/>
<path d="M17.0003 28.1734H16.2384V27.1825L15.2971 25.6201H16.1728L16.628 26.4699H16.6418L17.0968 25.6201H17.9278L16.9998 27.1825L17.0003 28.1734Z" fill="black"/>
<path d="M21.4277 25.7297C21.5432 25.8033 21.6362 25.9073 21.6966 26.0303C21.7621 26.1636 21.795 26.3105 21.7926 26.4589V26.5069C21.7949 26.656 21.762 26.8035 21.6966 26.9375C21.6366 27.0612 21.5435 27.1659 21.4277 27.2399C21.31 27.3137 21.1734 27.3517 21.0346 27.3493H20.4656V28.1732H19.7037V25.6202H21.0346C21.1734 25.6179 21.31 25.6559 21.4277 25.7297ZM20.4656 26.7521H20.7794C20.8598 26.7521 20.9201 26.7298 20.9603 26.6852C21.0005 26.6406 21.0206 26.58 21.0206 26.5034V26.4737C21.0206 26.3945 21.0005 26.3333 20.9603 26.29C20.9201 26.2467 20.8598 26.225 20.7794 26.225H20.4656V26.7521Z" fill="black"/>
<path d="M24.32 25.9133C24.543 26.1384 24.6545 26.4662 24.6544 26.8966C24.6543 27.327 24.5428 27.6548 24.32 27.88C24.097 28.1052 23.781 28.2178 23.3718 28.2178C22.9626 28.2178 22.6472 28.1058 22.4254 27.8818C22.2036 27.6578 22.0926 27.3293 22.0926 26.8965C22.0926 26.4636 22.2036 26.1352 22.4254 25.9112C22.6473 25.6872 22.9628 25.5752 23.3718 25.5752C23.7809 25.5752 24.0969 25.6879 24.32 25.9133ZM22.9995 26.3475C22.9142 26.4542 22.8715 26.5976 22.8715 26.7779V27.0154C22.8715 27.1959 22.9142 27.3395 22.9995 27.4459C23.0848 27.5524 23.2089 27.6057 23.3718 27.6059C23.535 27.6059 23.6598 27.5526 23.7461 27.4459C23.8324 27.3392 23.8754 27.1957 23.8753 27.0154V26.7779C23.8753 26.5973 23.8322 26.4539 23.7461 26.3475C23.6599 26.2412 23.5351 26.1878 23.3718 26.1875C23.2089 26.1878 23.0849 26.2412 22.9998 26.3475H22.9995Z" fill="black"/>
<path d="M26.7409 25.7741C26.9364 25.9065 27.0364 26.1026 27.0409 26.3623V26.4068H26.3272V26.3919C26.3281 26.3574 26.3218 26.3231 26.3087 26.2911C26.2957 26.2592 26.2761 26.2303 26.2513 26.2063C26.2008 26.1568 26.1238 26.1321 26.0203 26.1321C25.9192 26.1321 25.8416 26.1481 25.7877 26.1801C25.7337 26.2121 25.7067 26.2516 25.7067 26.2988C25.7067 26.3655 25.7434 26.415 25.8169 26.4473C25.8904 26.4795 26.0088 26.5129 26.1721 26.5474C26.3318 26.5807 26.4891 26.6248 26.6429 26.6793C26.7673 26.726 26.8781 26.803 26.9653 26.9033C27.0571 27.0071 27.1042 27.1482 27.1065 27.3263C27.1065 27.6282 27.0117 27.8522 26.8221 27.9983C26.6324 28.1444 26.379 28.2174 26.0617 28.2172C25.6916 28.2172 25.4036 28.1503 25.1977 28.0167C24.9919 27.883 24.889 27.6468 24.8891 27.3079H25.6091C25.6091 27.4365 25.6401 27.5225 25.7022 27.5658C25.7643 27.6091 25.8608 27.6308 25.9918 27.6308C26.0731 27.6331 26.1542 27.6218 26.2318 27.5973C26.295 27.5751 26.3266 27.5294 26.3267 27.4601C26.3267 27.3982 26.2917 27.3518 26.2216 27.3209C26.1515 27.2899 26.0372 27.2571 25.8785 27.2225C25.7156 27.1869 25.5552 27.1404 25.3985 27.0833C25.2694 27.033 25.1554 26.9503 25.0675 26.8433C24.9732 26.7319 24.9261 26.581 24.9261 26.3905C24.9261 26.1109 25.0266 25.9049 25.2278 25.7725C25.429 25.6402 25.6836 25.574 25.9915 25.574C26.2958 25.5751 26.5456 25.6419 26.7409 25.7741Z" fill="black"/>
<path d="M28.851 26.2735V28.1735H28.089V26.2735H27.3098V25.6204H29.6269V26.2735H28.851Z" fill="black"/>
<path d="M16.2864 15.1556V24.3387H18.4885V21.6975C18.7696 21.7247 19.0546 21.7383 19.3435 21.7383C24.2794 21.7383 28.2806 17.7372 28.2806 12.8012C28.2806 7.86522 24.2795 3.86426 19.344 3.86426C19.0554 3.86426 18.7704 3.87786 18.489 3.90506V6.00634C18.7726 5.97091 19.0582 5.95322 19.344 5.95338C23.1259 5.95338 26.192 9.01946 26.192 12.8014C26.192 16.5833 23.1259 19.6494 19.344 19.6494C19.0582 19.6495 18.7726 19.6318 18.489 19.5964V12.8124L16.2864 15.1556Z" fill="black"/>
</svg>
